# xmcd CD database file
#
# Track frame offsets:
#	150
#	22370
#	25557
#	43500
#	71405
#	102855
#	118622
#	144122
#	172560
#	203907
#	233257
#	240200
#
# Disc length: 3613 seconds
#
# Revision: 0
# Processed by: cddbd v1.5.2PL0 Copyright (c) Steve Scherf et al.
# Submitted via: CDex 1.51
#
DISCID=840e1b0c
DTITLE=Synthetic Earth - Synthetic Earth
DYEAR=1991
DGENRE=Jazz
TTITLE0=On the Move
TTITLE1=Knocking at the Door
TTITLE2=Waiting at the Door
TTITLE3=Nothing But Funk
TTITLE4=Until Then
TTITLE5=Preloved
TTITLE6=Beloved
TTITLE7=Life Cycle
TTITLE8=Medium Dark
TTITLE9=Latin Fantasy
TTITLE10=Waiting at the Door (Reprise)
TTITLE11=It Never Ends
EXTD=YEAR: 1991
EXTT0=
EXTT1=
EXTT2=
EXTT3=
EXTT4=
EXTT5=
EXTT6=
EXTT7=
EXTT8=
EXTT9=
EXTT10=
EXTT11=
PLAYORDER=
